<?xml version="1.0" standalone="no"?><!DOCTYPE svg PUBLIC "-//W3C//DTD SVG 1.1//EN" "http://www.w3.org/Graphics/SVG/1.1/DTD/svg11.dtd"><svg t="1497577338137" class="icon" style="" viewBox="0 0 1024 1024" version="1.1" xmlns="http://www.w3.org/2000/svg" p-id="5919" xmlns:xlink="http://www.w3.org/1999/xlink" width="200" height="200"><defs><style type="text/css"></style></defs><path d="M439.444009 685.98252c15.898085 1.11438 32.127721-3.689019 45.118594-14.410198l4.403287-1.418302L350.963839 532.160155l-1.409093 4.394077c-10.738575 12.983709-15.541975 29.228695-14.418384 45.13599l-48.965202 153.257499L439.444009 685.98252 439.444009 685.98252 439.444009 685.98252zM939.112146 127.150912l-45.1452-45.1452c-24.921599-24.930809-65.35038-24.930809-90.281189 0l-43.735084 43.726897L895.376039 261.158998l43.735084-43.736107C964.051141 192.501292 964.051141 152.072511 939.112146 127.150912L939.112146 127.150912 939.112146 127.150912zM848.812537 307.71329 713.394335 172.296111 398.806473 486.875786l135.434575 135.435599L848.812537 307.71329 848.812537 307.71329 848.812537 307.71329zM832.670905 893.703445 128.405997 893.703445 128.405997 189.447746l448.891683 0 0-61.844533L130.40656 127.603213c-35.268248 0-63.845097 28.576849-63.845097 63.836911l0 702.263321c0 35.260062 28.576849 63.84612 63.845097 63.84612l702.264345 0c35.260062 0 63.84612-28.586059 63.84612-63.84612L896.517025 446.804139l-63.84612 0L832.670905 893.703445 832.670905 893.703445 832.670905 893.703445zM832.670905 893.703445" p-id="5920" fill="#ffffff"></path></svg>