<?xml version="1.0" standalone="no"?><!DOCTYPE svg PUBLIC "-//W3C//DTD SVG 1.1//EN" "http://www.w3.org/Graphics/SVG/1.1/DTD/svg11.dtd"><svg t="1513146862606" class="icon" style="" viewBox="0 0 1024 1024" version="1.1" xmlns="http://www.w3.org/2000/svg" p-id="1869" xmlns:xlink="http://www.w3.org/1999/xlink" width="32" height="32"><defs><style type="text/css"></style></defs><path d="M672 864 224 864 224 160 672 160 672 320 704 320 704 128 192 128 192 896 704 896 704 704 672 704Z" p-id="1870" fill="#ffffff"></path><path d="M674.56 650.88c6.4 6.4 16.64 6.4 22.4 0l135.68-135.68-135.68-135.68c-6.4-6.4-16.64-6.4-22.4 0s-6.4 16.64 0 22.4L771.84 499.2 399.36 499.2c-8.96 0-16 7.04-16 16l0 0c0 8.96 7.04 16 16 16l372.48 0-97.28 97.28C668.16 634.88 668.16 644.48 674.56 650.88z" p-id="1871" fill="#ffffff"></path></svg>