<?xml version="1.0" standalone="no"?><!DOCTYPE svg PUBLIC "-//W3C//DTD SVG 1.1//EN" "http://www.w3.org/Graphics/SVG/1.1/DTD/svg11.dtd"><svg t="1512118376381" class="icon" style="" viewBox="0 0 1026 1024" version="1.1" xmlns="http://www.w3.org/2000/svg" p-id="5025" xmlns:xlink="http://www.w3.org/1999/xlink" width="32.0625" height="32"><defs><style type="text/css"></style></defs><path d="M990 886.9c-9.7 0-18.6-5.2-23.3-13.6-125.4-220-309-239.3-518.6-241l-5.2 0L442.9 836c0 10.6-6.2 20.2-15.8 24.4-3.5 1.6-7.3 2.4-11.1 2.4-6.5 0-12.8-2.4-17.8-6.7l-384-336c-5.7-5-9.1-12.2-9.2-19.7-0.2-7.6 2.9-14.9 8.5-20.1l384-360c5-4.7 11.5-7.3 18.4-7.3 3.7 0 7.3 0.7 10.7 2.2 9.9 4.3 16.2 14 16.2 24.7l0 173.7 4.9 0.2c99.5 5 190.3 33.5 269.9 84.8 70.3 45.3 131.9 108.1 183.3 186.7 83.1 127.2 112.3 254.9 115.3 269.1 2.7 13.3-4.4 26.1-16.8 30.8C996.4 886.3 993.2 886.9 990 886.9zM72.1 499.2l317 277.5L389.1 605.2c0-14.8 12.1-26.9 26.9-26.9 136.1 0 246.2 7.1 341.8 41.8 50.3 18.3 94 43.2 133.7 76.2l7.9-6.2c-14-27.9-28.5-53.2-44.3-77.1C747.5 449.7 599.8 366.9 416 366.9c-14.8 0-26.9-12.1-26.9-26.9L389.1 202 72.1 499.2z" p-id="5026"></path></svg>