<?xml version="1.0" standalone="no"?><!DOCTYPE svg PUBLIC "-//W3C//DTD SVG 1.1//EN" "http://www.w3.org/Graphics/SVG/1.1/DTD/svg11.dtd"><svg t="1514277183297" class="icon" style="" viewBox="0 0 1024 1024" version="1.1" xmlns="http://www.w3.org/2000/svg" p-id="3516" xmlns:xlink="http://www.w3.org/1999/xlink" width="32" height="32"><defs><style type="text/css"></style></defs><path d="M511.434112 63.791885c-247.038396 0-447.302489 200.264093-447.302489 447.302489s200.264093 447.302489 447.302489 447.302489c247.038396 0 447.302489-200.264093 447.302489-447.302489S758.472508 63.791885 511.434112 63.791885zM511.446391 902.471133c-215.824487 0-391.389038-175.564551-391.389038-391.371642s175.564551-391.389038 391.389038-391.389038S902.836453 295.293423 902.836453 511.099491 727.270878 902.471133 511.446391 902.471133z" p-id="3517" fill="#ffffff"></path><path d="M511.435135 725.280548m-40.784892 0a39.856 39.856 0 1 0 81.569784 0 39.856 39.856 0 1 0-81.569784 0Z" p-id="3518" fill="#ffffff"></path><path d="M511.435135 250.167666c-74.962296 0-135.948275 60.442604-135.948275 134.724401 0 15.008832 12.181437 27.189246 27.190269 27.189246s27.189246-12.180414 27.189246-27.189246c0-45.053102 35.836183-80.345909 81.56876-80.345909 44.972261 0 81.56876 36.868699 81.56876 82.194 0 18.135032-22.757307 40.866756-44.754297 62.890352-30.017664 29.990035-64.004733 63.977104-64.004733 108.459201l0 45.978171c0 15.008832 12.180414 27.189246 27.189246 27.189246 15.008832 0 27.189246-12.208043 27.189246-27.216875l0-45.978171c0-21.941732 24.416086-46.358841 48.071855-69.959352 29.827329-29.827329 60.687174-60.660568 60.687174-101.363595C647.38341 311.425845 586.396407 250.167666 511.435135 250.167666z" p-id="3519" fill="#ffffff"></path></svg>